<svg xmlns:dc="http://purl.org/dc/elements/1.1/" xmlns:cc="http://creativecommons.org/ns#" xmlns:rdf="http://www.w3.org/1999/02/22-rdf-syntax-ns#" xmlns:svg="http://www.w3.org/2000/svg" xmlns="http://www.w3.org/2000/svg" xmlns:sodipodi="http://sodipodi.sourceforge.net/DTD/sodipodi-0.dtd" xmlns:inkscape="http://www.inkscape.org/namespaces/inkscape" width="48.01083755493164" height="48.81687927246094" sodipodi:version="0.32" inkscape:version="0.46" version="1.0" sodipodi:docname="Leaf icon 15.svg" inkscape:output_extension="org.inkscape.output.svg.inkscape" style=""><rect id="backgroundrect" width="100%" height="100%" x="0" y="0" fill="none" stroke="none"/>
  <defs id="defs3316">
    <inkscape:perspective sodipodi:type="inkscape:persp3d" inkscape:vp_x="0 : 526.18109 : 1" inkscape:vp_y="0 : 1000 : 0" inkscape:vp_z="744.09448 : 526.18109 : 1" inkscape:persp3d-origin="372.04724 : 350.78739 : 1" id="perspective3322"/>
  </defs>
  <sodipodi:namedview id="base" pagecolor="#ffffff" bordercolor="#666666" borderopacity="1.0" gridtolerance="10000" guidetolerance="10" objecttolerance="10" inkscape:pageopacity="0.0" inkscape:pageshadow="2" inkscape:zoom="0.35" inkscape:cx="375" inkscape:cy="520" inkscape:document-units="px" inkscape:current-layer="layer1" showgrid="false" inkscape:window-width="640" inkscape:window-height="718" inkscape:window-x="632" inkscape:window-y="249"/>
  <metadata id="metadata3319">
    <rdf:RDF>
      <cc:Work rdf:about="">
        <dc:format>image/svg+xml</dc:format>
        <dc:type rdf:resource="http://purl.org/dc/dcmitype/StillImage"/>
      </cc:Work>
    </rdf:RDF>
  </metadata>
  
<g class="currentLayer" style=""><title>Layer 1</title><g inkscape:label="Layer 1" inkscape:groupmode="layer" id="layer1" class="" fill="#000000" fill-opacity="1">
    <g style="fill-rule: nonzero; stroke: none; stroke-width: 0.642259; stroke-linecap: butt; stroke-linejoin: miter; stroke-dasharray: none;" id="g132" fill="#000000" fill-opacity="1">
      <path d="M12.04534010409725,48.81686466956813 C8.446477316188293,48.56086464908816 6.565027165672291,47.263614545308144 5.598689588365346,45.82398943013811 C5.7839021031822995,42.319239149758175 6.320514646111292,37.95398880053813 7.828602266758367,33.99236348360813 C8.69317733592436,31.723738302118136 9.920139934081362,29.66998813781811 11.425290054493303,28.160363017048155 C13.070965186147305,26.360862873088138 14.591590307797333,24.976237762318135 16.12371543036727,23.834487670978092 C19.147965672307237,21.594612491788155 21.80109088455731,20.618862413728095 22.640715951727316,20.275612386268165 C23.48996601966735,19.947987360058107 25.012716141487317,19.332112310788148 26.855341288897307,18.646362255928125 C28.69209143583737,18.01736220560815 30.91684161381727,17.10711213278813 32.81584176573733,15.994237043758119 C36.70909207719728,13.865361873448137 39.93609233535733,11.462986681258087 39.930967334947354,11.462111681188105 C39.93746733546732,11.462986681258087 36.48721705944729,13.375236834238137 32.4783417387373,14.962486961218133 C30.4555915769173,15.82473703019815 28.388966411587262,16.391612075548096 26.459966257267297,16.838112111268117 C24.5617161054073,17.32636215032818 22.958465977147284,17.82348719009815 22.075590906517277,18.164987217418116 C20.42471577444735,18.854237272558123 10.53362748316033,22.01923752575817 5.481552078994355,32.62873837451815 C4.338789487573308,35.3386135913081 3.6220769302362896,38.14186381556817 3.1579393931052664,40.768614025708075 C2.0159018017423023,40.123988974138115 0.5942091880069711,38.87648887433812 0.2069391570253174,36.567613689628104 C-0.46803589697265124,32.54486336780815 -0.09247961692813078,20.473862402128134 10.846227508168226,13.76836186568812 C21.78571588332727,7.063686329314123 33.99896686038733,8.403736436518159 39.84384232797731,6.437336279206136 C45.68796779550735,4.470923621893121 48.010842981337305,-0.000014235781861771102 48.010842981337305,-0.000014235781861771102 C48.010842981337305,-0.000014235781861771102 43.14034259169728,45.508614404908144 12.04534010409725,48.81686466956813 z" id="path134" stroke-width="0" fill="#000000" fill-opacity="1"/>
    </g>
  </g></g></svg>